<svg width="425" height="173" viewBox="0 0 425 173" fill="none" xmlns="http://www.w3.org/2000/svg">
<rect width="425" height="173" fill="black"/>
<rect x="5" y="7" width="414" height="159" fill="white"/>
<path d="M66.5227 96V66.9091H76.3523C78.6345 66.9091 80.5 67.321 81.9489 68.1449C83.4072 68.9593 84.4867 70.0625 85.1875 71.4545C85.8883 72.8466 86.2386 74.3996 86.2386 76.1136C86.2386 77.8277 85.8883 79.3854 85.1875 80.7869C84.4962 82.1884 83.4261 83.3059 81.9773 84.1392C80.5284 84.9631 78.6723 85.375 76.4091 85.375H69.3636V82.25H76.2955C77.858 82.25 79.1127 81.9801 80.0597 81.4403C81.0066 80.9006 81.6932 80.1714 82.1193 79.2528C82.5549 78.3248 82.7727 77.2784 82.7727 76.1136C82.7727 74.9489 82.5549 73.9072 82.1193 72.9886C81.6932 72.0701 81.0019 71.3504 80.0455 70.8295C79.089 70.2992 77.8201 70.0341 76.2386 70.0341H70.0455V96H66.5227ZM90.1378 96H86.4446L97.1264 66.9091H100.763L111.445 96H107.751L99.0582 71.5114H98.831L90.1378 96ZM91.5014 84.6364H106.388V87.7614H91.5014V84.6364ZM115.976 96V66.9091H125.805C128.078 66.9091 129.944 67.2973 131.402 68.0739C132.86 68.8409 133.94 69.8968 134.641 71.2415C135.341 72.5862 135.692 74.1155 135.692 75.8295C135.692 77.5436 135.341 79.0634 134.641 80.3892C133.94 81.715 132.865 82.7566 131.416 83.5142C129.967 84.2623 128.116 84.6364 125.862 84.6364H117.908V81.4545H125.749C127.302 81.4545 128.552 81.2273 129.499 80.7727C130.455 80.3182 131.146 79.6742 131.572 78.8409C132.008 77.9981 132.226 76.9943 132.226 75.8295C132.226 74.6648 132.008 73.6468 131.572 72.7756C131.137 71.9044 130.441 71.232 129.484 70.7585C128.528 70.2756 127.264 70.0341 125.692 70.0341H119.499V96H115.976ZM129.669 82.9318L136.828 96H132.737L125.692 82.9318H129.669ZM150.539 96H141.562V66.9091H150.937C153.759 66.9091 156.174 67.4915 158.181 68.6562C160.189 69.8116 161.728 71.4735 162.798 73.642C163.868 75.8011 164.403 78.3864 164.403 81.3977C164.403 84.428 163.863 87.0369 162.783 89.2244C161.704 91.4025 160.132 93.0786 158.067 94.2528C156.003 95.4176 153.494 96 150.539 96ZM145.085 92.875H150.312C152.717 92.875 154.71 92.411 156.292 91.483C157.873 90.5549 159.052 89.2339 159.829 87.5199C160.605 85.8059 160.994 83.7652 160.994 81.3977C160.994 79.0492 160.61 77.0275 159.843 75.3324C159.076 73.6278 157.93 72.321 156.406 71.4119C154.881 70.4934 152.982 70.0341 150.71 70.0341H145.085V92.875ZM173.835 66.9091V96H170.312V66.9091H173.835ZM196.58 57.5341V105.375H193.739V57.5341H196.58ZM225.461 96H216.484V66.9091H225.859C228.681 66.9091 231.095 67.4915 233.103 68.6562C235.111 69.8116 236.649 71.4735 237.719 73.642C238.79 75.8011 239.325 78.3864 239.325 81.3977C239.325 84.428 238.785 87.0369 237.705 89.2244C236.626 91.4025 235.054 93.0786 232.989 94.2528C230.925 95.4176 228.415 96 225.461 96ZM220.006 92.875H225.234C227.639 92.875 229.632 92.411 231.214 91.483C232.795 90.5549 233.974 89.2339 234.751 87.5199C235.527 85.8059 235.915 83.7652 235.915 81.3977C235.915 79.0492 235.532 77.0275 234.765 75.3324C233.998 73.6278 232.852 72.321 231.327 71.4119C229.803 70.4934 227.904 70.0341 225.631 70.0341H220.006V92.875ZM245.234 96V66.9091H262.79V70.0341H248.756V79.8636H261.881V82.9886H248.756V92.875H263.018V96H245.234ZM285.049 74.1818C284.879 72.7424 284.187 71.625 282.975 70.8295C281.763 70.0341 280.276 69.6364 278.515 69.6364C277.227 69.6364 276.1 69.8447 275.134 70.2614C274.178 70.678 273.43 71.2509 272.89 71.9801C272.36 72.7093 272.094 73.5379 272.094 74.4659C272.094 75.2424 272.279 75.91 272.648 76.4688C273.027 77.018 273.51 77.4773 274.097 77.8466C274.684 78.2064 275.3 78.5047 275.944 78.7415C276.588 78.9687 277.18 79.1534 277.719 79.2955L280.674 80.0909C281.432 80.2898 282.274 80.5644 283.202 80.9148C284.14 81.2652 285.035 81.7434 285.887 82.3494C286.749 82.946 287.459 83.7131 288.018 84.6506C288.576 85.5881 288.856 86.7386 288.856 88.1023C288.856 89.6742 288.444 91.0947 287.62 92.3636C286.806 93.6326 285.612 94.6411 284.04 95.3892C282.478 96.1373 280.579 96.5114 278.344 96.5114C276.261 96.5114 274.457 96.1752 272.933 95.5028C271.417 94.8305 270.224 93.893 269.353 92.6903C268.491 91.4877 268.004 90.0909 267.89 88.5H271.526C271.621 89.5985 271.99 90.5076 272.634 91.2273C273.288 91.9375 274.112 92.4678 275.106 92.8182C276.11 93.1591 277.189 93.3295 278.344 93.3295C279.689 93.3295 280.897 93.1117 281.967 92.6761C283.037 92.2311 283.884 91.6155 284.509 90.8295C285.134 90.0341 285.447 89.1061 285.447 88.0455C285.447 87.0795 285.177 86.2936 284.637 85.6875C284.097 85.0814 283.387 84.589 282.506 84.2102C281.626 83.8314 280.674 83.5 279.651 83.2159L276.072 82.1932C273.799 81.5398 272 80.607 270.674 79.3949C269.348 78.1828 268.685 76.5966 268.685 74.6364C268.685 73.0076 269.126 71.5871 270.006 70.375C270.897 69.1534 272.09 68.2064 273.586 67.5341C275.092 66.8523 276.772 66.5114 278.629 66.5114C280.504 66.5114 282.17 66.8475 283.629 67.5199C285.087 68.1828 286.242 69.0919 287.094 70.2472C287.956 71.4025 288.411 72.714 288.458 74.1818H285.049ZM298.17 66.9091V96H294.648V66.9091H298.17ZM325.12 76C324.808 75.0436 324.396 74.1866 323.884 73.429C323.382 72.6619 322.781 72.0085 322.08 71.4688C321.389 70.929 320.603 70.517 319.722 70.233C318.842 69.9489 317.876 69.8068 316.825 69.8068C315.101 69.8068 313.534 70.2519 312.123 71.142C310.712 72.0322 309.59 73.3438 308.756 75.0767C307.923 76.8097 307.506 78.9356 307.506 81.4545C307.506 83.9735 307.928 86.0994 308.771 87.8324C309.613 89.5653 310.754 90.8769 312.194 91.767C313.633 92.6572 315.253 93.1023 317.052 93.1023C318.719 93.1023 320.186 92.7472 321.455 92.0369C322.734 91.3172 323.728 90.304 324.438 88.9972C325.158 87.6809 325.518 86.1326 325.518 84.3523L326.597 84.5795H317.847V81.4545H328.927V84.5795C328.927 86.9754 328.415 89.0587 327.393 90.8295C326.379 92.6004 324.978 93.9735 323.188 94.9489C321.408 95.9148 319.362 96.3977 317.052 96.3977C314.476 96.3977 312.213 95.7917 310.262 94.5795C308.321 93.3674 306.806 91.6439 305.717 89.4091C304.637 87.1742 304.097 84.5227 304.097 81.4545C304.097 79.1534 304.405 77.0843 305.021 75.2472C305.646 73.4006 306.526 71.8286 307.663 70.5312C308.799 69.2339 310.144 68.2396 311.697 67.5483C313.25 66.857 314.959 66.5114 316.825 66.5114C318.359 66.5114 319.789 66.7434 321.114 67.2074C322.45 67.6619 323.638 68.3106 324.68 69.1534C325.731 69.9867 326.607 70.9858 327.308 72.1506C328.008 73.3059 328.491 74.589 328.756 76H325.12ZM358.028 66.9091V96H354.619L338.767 73.1591H338.483V96H334.96V66.9091H338.369L354.278 89.8068H354.562V66.9091H358.028Z" fill="black"/>
</svg>
